<svg xmlns="http://www.w3.org/2000/svg" fill="none" viewBox="0 0 128 128">
  <g clip-path="url(#clip0_1_3)">
    <path fill="#fff"
      d="M31.58 112c-1.4 0-2.1-.467-2.1-1.4 0-.933.653-1.54 1.96-1.82l2.1-.42c1.867-.373 3.267-1.26 4.2-2.66.933-1.493 1.727-3.547 2.38-6.16l21.7-87.5c.187-.933.467-1.54.84-1.82.467-.28.887-.42 1.26-.42.467 0 .887.14 1.26.42.467.28.793.887.98 1.82l22.12 88.76c.653 2.613 1.4 4.433 2.24 5.46.84 1.027 2.147 1.727 3.92 2.1l2.1.42c1.307.28 1.96.887 1.96 1.82s-.7 1.4-2.1 1.4H72.46c-1.307 0-1.96-.513-1.96-1.54 0-1.027.793-1.587 2.38-1.68l2.66-.28c1.587-.187 2.567-.7 2.94-1.54.467-.84.467-2.287 0-4.34l-5.32-21.7c-.56-2.427-2.1-3.64-4.62-3.64h-14.7c-2.427 0-3.967 1.213-4.62 3.64l-4.76 18.76c-1.4 5.32 0 8.26 4.2 8.82l2.1.28c1.587.28 2.38.84 2.38 1.68 0 1.027-.653 1.54-1.96 1.54h-19.6Zm21.84-38.92h15.4c1.493 0 2.1-.793 1.82-2.38l-8.96-37.52h-.7L51.6 70.7c-.28 1.587.327 2.38 1.82 2.38Z" />
  </g>
  <defs>
    <clipPath id="clip0_1_3">
      <path fill="#fff" d="M0 0h128v128H0z" />
    </clipPath>
  </defs>
  <style>
    path {
      fill: #000;
    }

    @media (prefers-color-scheme: dark) {
      path {
        fill: #FFF;
      }
    }
  </style>
</svg>
